<svg width="13" height="13" viewBox="0 0 13 13" fill="none" xmlns="http://www.w3.org/2000/svg">
<g clip-path="url(#clip0_137_999)">
<path d="M3.80048 5.52521C4.51764 6.93463 5.67058 8.08757 7.08249 8.80473L8.17816 7.70658C8.31512 7.56962 8.51184 7.52978 8.68366 7.58456C9.24145 7.76883 9.84158 7.86844 10.4616 7.86844C10.738 7.86844 10.9597 8.09006 10.9597 8.36647V10.1096C10.9597 10.386 10.738 10.6076 10.4616 10.6076C5.78512 10.6076 1.99512 6.8176 1.99512 2.1411C1.99512 1.86469 2.21923 1.64307 2.49315 1.64307H4.23625C4.51266 1.64307 4.73428 1.86469 4.73428 2.1411C4.73428 2.76114 4.83389 3.36127 5.01816 3.91906C5.07294 4.09088 5.0331 4.2876 4.89614 4.42456L3.80048 5.52521Z" fill="#8C8C8C"/>
</g>
<defs>
<clipPath id="clip0_137_999">
<rect width="11.9527" height="11.9527" fill="white" transform="translate(0.500977 0.148926)"/>
</clipPath>
</defs>
</svg>
