<svg width="40" height="40" viewBox="0 0 40 40" fill="none" xmlns="http://www.w3.org/2000/svg">
<path d="M14.3333 37.5L11.1667 32.1667L5.16666 30.8333L5.74999 24.6667L1.66666 20L5.74999 15.3333L5.16666 9.16667L11.1667 7.83333L14.3333 2.5L20 4.91667L25.6667 2.5L28.8333 7.83333L34.8333 9.16667L34.25 15.3333L38.3333 20L34.25 24.6667L34.8333 30.8333L28.8333 32.1667L25.6667 37.5L20 35.0833L14.3333 37.5ZM15.75 33.25L20 31.4167L24.3333 33.25L26.6667 29.25L31.25 28.1667L30.8333 23.5L33.9167 20L30.8333 16.4167L31.25 11.75L26.6667 10.75L24.25 6.75L20 8.58333L15.6667 6.75L13.3333 10.75L8.74999 11.75L9.16666 16.4167L6.08332 20L9.16666 23.5L8.74999 28.25L13.3333 29.25L15.75 33.25ZM18.25 25.9167L27.6667 16.5L25.3333 14.0833L18.25 21.1667L14.6667 17.6667L12.3333 20L18.25 25.9167Z" fill="#0DC167"/>
</svg>
