<svg width="56" height="51" viewBox="0 0 56 51" fill="none" xmlns="http://www.w3.org/2000/svg">
<path d="M41.538 35.9248H33.8067C33.2551 35.9248 32.7261 35.7033 32.3361 35.309C31.9461 34.9146 31.7269 34.3798 31.7269 33.8221C31.7269 33.2645 31.9461 32.7297 32.3361 32.3353C32.7261 31.941 33.2551 31.7195 33.8067 31.7195H41.538C44.0966 31.6886 46.5401 30.6393 48.3386 28.7992C50.1371 26.9591 51.1457 24.4764 51.1457 21.8895C51.1457 19.3026 50.1371 16.8199 48.3386 14.9798C46.5401 13.1397 44.0966 12.0904 41.538 12.0595C41.276 12.0595 40.9973 12.0721 40.6867 12.1002C40.2937 12.134 39.8993 12.0543 39.5494 11.8701C39.1996 11.6859 38.9088 11.405 38.7109 11.06C37.3085 8.61435 35.195 6.66466 32.658 5.47608C30.1209 4.2875 27.2833 3.91772 24.5311 4.417C21.7788 4.91629 19.2454 6.26042 17.2754 8.26663C15.3054 10.2728 13.9943 12.8438 13.5204 15.6298C13.4357 16.1326 13.1731 16.5871 12.7816 16.9087C12.39 17.2303 11.8962 17.397 11.3921 17.3779H11.2451C10.3134 17.3779 9.39082 17.5634 8.53003 17.9239C7.66924 18.2843 6.88711 18.8127 6.22829 19.4788C5.56947 20.1448 5.04687 20.9356 4.69032 21.8058C4.33376 22.6761 4.15025 23.6088 4.15025 24.5508C4.15025 25.4927 4.33376 26.4255 4.69032 27.2957C5.04687 28.166 5.56947 28.9567 6.22829 29.6228C6.88711 30.2888 7.66924 30.8172 8.53003 31.1777C9.39082 31.5381 10.3134 31.7237 11.2451 31.7237H21.6039C22.1555 31.7237 22.6845 31.9452 23.0745 32.3395C23.4646 32.7339 23.6837 33.2687 23.6837 33.8263C23.6837 34.384 23.4646 34.9188 23.0745 35.3132C22.6845 35.7075 22.1555 35.929 21.6039 35.929H11.2451C8.38875 35.9263 5.64025 34.8257 3.55663 32.8504C1.47301 30.8751 0.210143 28.1728 0.0239547 25.2911C-0.162233 22.4095 0.742189 19.5641 2.55393 17.3315C4.36567 15.0989 6.9492 13.6463 9.78095 13.2678C10.6698 9.95134 12.4807 6.96207 14.999 4.65447C17.5172 2.34688 20.6372 0.817744 23.9889 0.248378C27.3406 -0.320987 30.7836 0.0932959 33.9095 1.44211C37.0354 2.79092 39.7132 5.01768 41.6254 7.85838C45.2591 7.94247 48.7152 9.46384 51.2516 12.0958C53.788 14.7277 55.2024 18.2603 55.191 21.9349C55.1795 25.6095 53.7432 29.133 51.1905 31.7487C48.6377 34.3645 45.1722 35.8638 41.538 35.9248Z" fill="#0DC167"/>
<path d="M27.7049 50.3631C27.1535 50.3626 26.6248 50.1408 26.2352 49.7463L19.5549 42.9939C19.1647 42.5997 18.9454 42.0649 18.9453 41.5072C18.9452 40.9494 19.1642 40.4145 19.5542 40.0201C19.9442 39.6256 20.4732 39.4039 21.0248 39.4038C21.5764 39.4037 22.1055 39.6251 22.4957 40.0194L27.7049 45.2873L32.9155 40.0194C33.3056 39.6251 33.8347 39.4037 34.3864 39.4038C34.938 39.4039 35.467 39.6256 35.857 40.0201C36.247 40.4145 36.466 40.9494 36.4659 41.5072C36.4657 42.0649 36.2465 42.5997 35.8563 42.9939L29.176 49.7463C28.9829 49.9418 28.7536 50.0969 28.5012 50.2027C28.2487 50.3085 27.9782 50.363 27.7049 50.3631Z" fill="#0DC167"/>
<path d="M27.7048 50.3631C27.1532 50.3631 26.6242 50.1415 26.2342 49.7472C25.8441 49.3529 25.625 48.8181 25.625 48.2604V25.1647C25.625 24.607 25.8441 24.0722 26.2342 23.6779C26.6242 23.2835 27.1532 23.062 27.7048 23.062C28.2564 23.062 28.7854 23.2835 29.1754 23.6779C29.5655 24.0722 29.7846 24.607 29.7846 25.1647V48.2604C29.7846 48.8181 29.5655 49.3529 29.1754 49.7472C28.7854 50.1415 28.2564 50.3631 27.7048 50.3631Z" fill="#0DC167"/>
</svg>
