<svg width="33" height="33" viewBox="0 0 33 33" fill="none" xmlns="http://www.w3.org/2000/svg">
<path d="M11.6279 17.5258L22.7947 27.3511C22.9237 27.4653 23.0803 27.544 23.249 27.5795C23.4176 27.6149 23.5926 27.6059 23.7568 27.5533C23.9209 27.5007 24.0685 27.4063 24.1851 27.2794C24.3017 27.1524 24.3833 26.9974 24.4219 26.8294L29.0923 6.43358C29.1315 6.25793 29.1222 6.07495 29.0655 5.90416C29.0088 5.73337 28.9067 5.58118 28.7703 5.46386C28.6338 5.34653 28.468 5.26846 28.2907 5.23798C28.1133 5.20751 27.931 5.22577 27.7632 5.29082L4.83347 14.2963C3.9143 14.6565 4.03851 15.998 5.00737 16.1967L11.6279 17.5258Z" stroke="white" stroke-width="2" stroke-linecap="round" stroke-linejoin="round"/>
<path d="M11.6279 17.5256L28.5333 5.31543" stroke="white" stroke-width="2" stroke-linecap="round" stroke-linejoin="round"/>
<path d="M17.2051 22.4328L13.3296 26.3082C13.1914 26.4486 13.0145 26.5447 12.8215 26.5844C12.6285 26.624 12.428 26.6054 12.2456 26.5308C12.0633 26.4563 11.9071 26.3292 11.7972 26.1657C11.6872 26.0022 11.6283 25.8097 11.6279 25.6126V17.5264" stroke="white" stroke-width="2" stroke-linecap="round" stroke-linejoin="round"/>
</svg>
