<svg width="24" height="25" viewBox="0 0 24 25" fill="none" xmlns="http://www.w3.org/2000/svg">
<path fill-rule="evenodd" clip-rule="evenodd" d="M20.4547 4.38207C18.2446 2.16951 15.3057 0.950502 12.1744 0.949219C5.72246 0.949219 0.471291 6.19997 0.468772 12.6539C0.46787 14.717 1.00689 16.7307 2.03127 18.5058L0.370605 24.5715L6.57589 22.9438C8.28559 23.8763 10.2106 24.3678 12.1697 24.3685H12.1744C12.1741 24.3685 12.1748 24.3685 12.1744 24.3685C18.6257 24.3685 23.8773 19.1172 23.88 12.6632C23.8811 9.53546 22.6647 6.59453 20.4547 4.38207ZM12.1744 22.3916H12.1705C10.4247 22.391 8.71242 21.9219 7.21863 21.0355L6.86341 20.8247L3.1811 21.7906L4.164 18.2004L3.93265 17.8322C2.95877 16.2832 2.44442 14.4928 2.44518 12.6545C2.44727 7.2903 6.81185 2.9262 12.1783 2.9262C14.777 2.927 17.2198 3.94037 19.0567 5.77936C20.8935 7.61835 21.9046 10.0628 21.9035 12.6624C21.9013 18.027 17.5369 22.3916 12.1744 22.3916Z" fill="white"/>
<path fill-rule="evenodd" clip-rule="evenodd" d="M17.5111 15.1047C17.2186 14.9583 15.7806 14.2509 15.5125 14.1532C15.2444 14.0556 15.0494 14.0068 14.8545 14.2996C14.6595 14.5923 14.099 15.2512 13.9283 15.4464C13.7578 15.6415 13.5871 15.6661 13.2947 15.5195C13.0022 15.3731 12.0598 15.0643 10.9427 14.0679C10.0731 13.2923 9.48617 12.3346 9.3155 12.0417C9.14492 11.749 9.29735 11.5907 9.44379 11.4448C9.57536 11.3137 9.73629 11.1032 9.88255 10.9324C10.0288 10.7617 10.0775 10.6396 10.175 10.4445C10.2725 10.2493 10.2238 10.0784 10.1506 9.9321C10.0775 9.78571 9.49259 8.34608 9.24888 7.76036C9.0114 7.19013 8.7703 7.26739 8.59074 7.25831C8.4204 7.2498 8.22516 7.24805 8.0302 7.24805C7.83525 7.24805 7.51832 7.32127 7.25028 7.61401C6.9822 7.90685 6.22656 8.6145 6.22656 10.054C6.22656 11.4937 7.27461 12.8844 7.42086 13.0796C7.56707 13.2749 9.48327 16.229 12.4173 17.4959C13.1151 17.7973 13.6599 17.9772 14.0846 18.112C14.7853 18.3346 15.4229 18.3032 15.9268 18.2279C16.4888 18.1439 17.6573 17.5204 17.901 16.8372C18.1448 16.154 18.1448 15.5683 18.0716 15.4464C17.9985 15.3244 17.8035 15.2512 17.5111 15.1047Z" fill="white"/>
</svg>
