<svg width="23" height="17" viewBox="0 0 23 17" fill="none" xmlns="http://www.w3.org/2000/svg">
<path d="M22.8 3.8C22.8 3.6 22.5 2 21.8 1.3C20.9 0.3 19.9 0.2 19.4 0.2H19.3C16.2 4.47035e-08 11.6 0 11.5 0C11.5 0 6.8 4.47035e-08 3.7 0.2H3.6C3.1 0.2 2.1 0.3 1.2 1.3C0.5 2.1 0.2 3.7 0.2 3.9C0.2 4 0 5.8 0 7.7V9.4C0 11.3 0.2 13.1 0.2 13.2C0.2 13.4 0.5 15 1.2 15.7C2 16.6 3 16.7 3.6 16.8C3.7 16.8 3.8 16.8 3.9 16.8C5.7 17 11.2 17 11.4 17C11.4 17 16.1 17 19.2 16.8H19.3C19.8 16.7 20.8 16.6 21.7 15.7C22.4 14.9 22.7 13.3 22.7 13.1C22.7 13 22.9 11.2 22.9 9.3V7.6C23 5.8 22.8 3.9 22.8 3.8ZM15.4 8.7L9.4 11.9C9.3 11.9 9.3 12 9.2 12C9.1 12 9 12 9 11.9C8.9 11.8 8.8 11.7 8.8 11.5V5C8.8 4.8 8.9 4.7 9 4.6C9.1 4.5 9.3 4.5 9.5 4.6L15.5 7.8C15.7 7.9 15.8 8 15.8 8.2C15.8 8.4 15.6 8.6 15.4 8.7Z" fill="white"/>
</svg>
