<svg width="25" height="25" viewBox="0 0 25 25" fill="none" xmlns="http://www.w3.org/2000/svg">
<path d="M12.7151 6.59473C9.39418 6.59473 6.64258 9.29889 6.64258 12.6672C6.64258 16.0356 9.34674 18.7397 12.7151 18.7397C16.0834 18.7397 18.7876 15.9881 18.7876 12.6672C18.7876 9.34633 16.036 6.59473 12.7151 6.59473ZM12.7151 16.5574C10.5802 16.5574 8.82488 14.8021 8.82488 12.6672C8.82488 10.5324 10.5802 8.77703 12.7151 8.77703C14.8499 8.77703 16.6053 10.5324 16.6053 12.6672C16.6053 14.8021 14.8499 16.5574 12.7151 16.5574Z" fill="white"/>
<path d="M19.0247 7.82777C19.7846 7.82777 20.4005 7.21181 20.4005 6.45197C20.4005 5.69214 19.7846 5.07617 19.0247 5.07617C18.2649 5.07617 17.6489 5.69214 17.6489 6.45197C17.6489 7.21181 18.2649 7.82777 19.0247 7.82777Z" fill="white"/>
<path d="M22.583 2.89432C21.3495 1.6134 19.5942 0.949219 17.6016 0.949219H7.82871C3.70131 0.949219 0.949707 3.70082 0.949707 7.82822V17.5537C0.949707 19.5937 1.61389 21.349 2.94225 22.6299C4.22316 23.8634 5.93105 24.4802 7.87615 24.4802H17.5542C19.5942 24.4802 21.3021 23.816 22.5355 22.6299C23.8165 21.3965 24.4806 19.6411 24.4806 17.6012V7.82822C24.4806 5.83568 23.8165 4.12779 22.583 2.89432ZM22.3932 17.6012C22.3932 19.0718 21.8714 20.2579 21.0174 21.0644C20.1635 21.8709 18.9774 22.2978 17.5542 22.2978H7.87615C6.45291 22.2978 5.26687 21.8709 4.41293 21.0644C3.55898 20.2104 3.13201 19.0244 3.13201 17.5537V7.82822C3.13201 6.40498 3.55898 5.21895 4.41293 4.365C5.21943 3.5585 6.45291 3.13152 7.87615 3.13152H17.6491C19.0723 3.13152 20.2584 3.5585 21.1123 4.41244C21.9188 5.26639 22.3932 6.45242 22.3932 7.82822V17.6012Z" fill="white"/>
</svg>
