<svg width="22" height="22" viewBox="0 0 22 22" fill="none" xmlns="http://www.w3.org/2000/svg">
<path d="M11.0011 13.1998C14.0338 13.1998 16.4924 10.2449 16.4924 6.59989C16.4924 2.95487 14.0338 0 11.0011 0C7.9683 0 5.50977 2.95487 5.50977 6.59989C5.50977 10.2449 7.9683 13.1998 11.0011 13.1998Z" fill="#252525" fill-opacity="0.5"/>
<path d="M21.7629 18.8104C20.7745 16.8304 18.9075 15.1804 16.4913 14.1904C15.8323 13.9704 15.0636 13.9704 14.5144 14.3004C13.4162 14.9604 12.3179 15.2904 11 15.2904C9.68209 15.2904 8.58383 14.9604 7.48557 14.3004C6.93644 14.0804 6.16766 13.9704 5.5087 14.3004C3.09253 15.2904 1.22548 16.9404 0.23705 18.9204C-0.531732 20.3503 0.676354 22.0003 2.32374 22.0003H19.6763C21.3236 22.0003 22.5317 20.3503 21.7629 18.8104Z" fill="#252525" fill-opacity="0.5"/>
</svg>
