<svg width="11" height="11" viewBox="0 0 11 11" fill="none" xmlns="http://www.w3.org/2000/svg">
<path d="M5.47745 6.03007C6.85273 6.03007 7.9676 4.69222 7.9676 3.04189C7.9676 1.39156 6.85273 0.0537109 5.47745 0.0537109C4.10218 0.0537109 2.9873 1.39156 2.9873 3.04189C2.9873 4.69222 4.10218 6.03007 5.47745 6.03007Z" fill="#252525" fill-opacity="0.5"/>
<path d="M10.3581 8.56984C9.90991 7.67338 9.06326 6.92634 7.96759 6.47811C7.66878 6.3785 7.32016 6.3785 7.07114 6.52791C6.57311 6.82673 6.07508 6.97614 5.47745 6.97614C4.87981 6.97614 4.38178 6.82673 3.88375 6.52791C3.63474 6.42831 3.28611 6.3785 2.9873 6.52791C1.89163 6.97614 1.04498 7.72319 0.596753 8.61964C0.248133 9.26708 0.795965 10.0141 1.54301 10.0141H9.41188C10.1589 10.0141 10.7068 9.26708 10.3581 8.56984Z" fill="#252525" fill-opacity="0.5"/>
</svg>
