<svg width="100" height="100" viewBox="0 0 100 100" fill="none" xmlns="http://www.w3.org/2000/svg">
<g clip-path="url(#clip0_430_677)">
<path d="M11.3007 37.9999C11.8007 37.1999 12.3007 36.3999 12.9007 35.5999C14.6007 32.3999 16.6007 29.3999 18.9007 26.5999C24.2007 19.9999 29.7007 13.4999 36.7007 8.59994C37.4007 8.09994 38.2007 7.79993 39.0007 7.69993C44.7007 3.59994 52.5007 -0.300065 57.9007 5.09993C59.0007 6.19993 59.7007 7.59994 60.1007 9.09994C64.2007 13.9999 62.1007 21.3999 59.9007 26.9999C59.7007 27.4999 59.5007 27.9999 59.3007 28.4999C59.8007 29.0999 60.2007 29.6999 60.4007 30.4999C61.8007 34.8999 64.0007 38.8999 66.9007 42.3999C69.7007 45.6999 73.1007 47.7999 74.4007 51.9999C74.5007 52.1999 74.5007 52.3999 74.5007 52.5999C81.3007 56.5999 75.1007 65.4999 71.5007 69.7999C69.3007 72.3999 66.3007 74.9999 62.8007 75.4999C59.0007 76.0999 57.5007 73.9999 55.3007 71.4999C49.8007 65.2999 40.9007 64.1999 33.2007 63.0999C32.7007 62.9999 32.2007 62.8999 31.8007 62.6999C30.3007 63.0999 28.8007 63.1999 27.3007 62.8999C23.3007 64.0999 19.2007 64.7999 15.6007 63.9999C14.0007 63.6999 12.5007 62.8999 11.4007 61.7999C9.20074 61.6999 7.40073 60.1999 6.90073 58.0999C4.60073 50.6999 7.40073 43.9999 11.3007 37.9999Z" fill="#EFE7D2"/>
<path d="M57.8003 75.5998C58.0003 75.5998 58.2003 75.6998 58.4003 75.6998C59.2003 75.6998 59.8003 75.6998 60.4003 75.6998C61.4003 75.6998 62.4003 76.0998 63.2003 76.5998C63.4003 76.5998 63.6003 76.4998 63.8003 76.4998C64.6003 74.5998 66.0003 72.9998 67.8003 71.9998C69.9003 70.7998 73.3003 70.1998 74.7003 68.0998C74.9003 67.4998 75.2003 66.7998 75.5003 66.2998C75.6003 66.0998 75.7003 65.8998 75.8003 65.5998C76.1003 64.9998 76.4003 64.3998 76.9003 63.8998C76.7003 60.2998 80.6003 56.4998 84.8003 58.6998C90.5003 61.6998 93.5003 69.3998 93.1003 75.5998C92.7003 82.4998 86.5003 87.9998 80.2003 88.9998C76.8003 89.5998 71.6003 88.2998 67.8003 85.7998C67.1003 86.3998 66.4003 86.6998 65.5003 86.8998C62.5003 87.4998 59.5003 88.5998 56.9003 90.0998C54.5003 91.4998 52.6003 93.7998 49.9003 94.8998C46.4003 96.2998 41.6003 94.3998 38.7003 91.5998C37.5003 91.3998 36.6003 90.4998 36.2003 89.3998C31.5003 77.1998 49.6003 74.3998 57.8003 75.5998Z" fill="#F15A22"/>
<path d="M27.5003 31.0999C29.8003 27.8999 34.4003 25.3999 38.1003 27.2999C38.5003 27.1999 39.0003 27.1999 39.4003 27.1999C40.6003 27.1999 41.7003 27.7999 42.3003 28.8999C43.9003 32.1999 41.1003 35.7999 39.1003 38.2999C37.8003 39.9999 35.7003 42.8999 33.3003 43.9999C33.2003 44.0999 33.2003 44.1999 33.1003 44.2999C31.9003 45.4999 29.5003 45.6999 28.4003 44.2999C25.4003 40.3999 24.6003 35.1999 27.5003 31.0999Z" fill="#F15A22"/>
<path d="M61.8005 41.3001C63.6005 47.5001 67.3005 53.0001 72.3005 57.0001C74.2005 58.5001 71.5005 61.2001 69.6005 59.7001C64.1005 55.2001 60.1005 49.2001 58.1005 42.3001C57.4005 40.0001 61.1005 38.9001 61.8005 41.3001Z" fill="white"/>
<path d="M50.5007 29.3C52.0007 27 53.3007 24.6 54.6007 22.2C55.7007 20 59.0007 21.9 57.9007 24.1C56.7007 26.5 55.3007 28.9 53.8007 31.2C52.4007 33.3 49.1007 31.4 50.5007 29.3Z" fill="white"/>
<path d="M12.8003 49C13.9003 47.5 14.9003 45.8 15.7003 44.1C16.2003 43.2 17.4003 42.9 18.3003 43.4C19.2003 43.9 19.5003 45.1 19.0003 46C18.2003 47.7 17.2003 49.3 16.1003 50.9C15.6003 51.8 14.4003 52.1 13.5003 51.6C12.5003 51 12.2003 49.9 12.8003 49Z" fill="white"/>
<path d="M84.3 65.4C87.7 68.5 89.7 73 88.2 77.6C87.4 79.9 83.7 78.9 84.5 76.6C85.6 73.2 84.1 70.3 81.6 68.1C79.8 66.5 82.5 63.8 84.3 65.4Z" fill="white"/>
<path d="M27.4004 64.6001C26.2004 64.6001 25.0004 64.7001 23.9004 64.9001C21.9004 65.3001 19.9004 65.6001 17.9004 65.7001C16.5004 65.7001 15.0004 65.5001 13.6004 65.0001C12.5004 64.6001 11.5004 64.2001 10.5004 63.6001C8.80039 62.6001 7.40039 61.2001 6.40039 59.5001C5.70039 58.1001 5.30039 56.6001 5.30039 55.1001C5.40039 53.0001 5.80038 50.9001 6.70039 48.9001C7.50039 46.8001 8.60039 44.8001 9.70039 42.9001C14.8004 34.2001 23.0004 24.4001 31.3004 16.7001C35.2004 13.0001 39.3004 9.8001 43.7004 7.0001C45.5004 5.9001 47.4004 4.9001 49.4004 4.2001C51.0004 3.5001 52.8004 3.2001 54.5004 3.1001C55.9004 3.1001 57.4004 3.5001 58.6004 4.2001C59.6004 4.9001 60.5004 5.9001 61.1004 7.0001C61.6004 7.9001 62.1004 8.9001 62.5004 10.0001C63.5004 12.5001 64.0004 15.1001 64.0004 17.8001C64.0004 19.5001 63.8004 21.2001 63.5004 22.9001C63.2004 24.3001 62.9004 25.5001 62.8004 26.1001C62.6004 26.9001 62.5004 27.7001 62.5004 28.6001C62.5004 31.3001 63.3004 34.8001 66.0004 39.3001C68.5004 43.6001 72.6004 48.8001 78.9004 55.0001C79.2004 55.0001 79.4004 55.0001 79.6004 55.1001C82.2004 56.3001 84.7004 57.9001 86.8004 59.8001C88.7004 61.4001 90.3004 63.3001 91.6004 65.4001C93.1004 67.8001 94.0004 70.5001 94.3004 73.3001C94.3004 73.7001 94.4004 74.4001 94.4004 75.3001C94.4004 76.8001 94.2004 78.3001 93.8004 79.7001C93.3004 81.6001 92.4004 83.4001 91.2004 84.9001C89.7004 86.8001 87.6004 88.2001 85.4004 89.0001C83.2004 89.8001 80.9004 90.2001 78.6004 90.2001C76.2004 90.2001 73.8004 89.8001 71.5004 89.1001C69.5004 88.4001 67.7004 87.5001 66.0004 86.2001C59.7004 88.2001 53.9004 91.6001 49.1004 96.1001C48.8004 96.4001 48.4004 96.7001 48.0004 97.0001C47.5004 97.4001 46.9004 97.6001 46.3004 97.6001H46.2004C45.8004 97.6001 45.3004 97.5001 44.9004 97.3001C44.6004 97.2001 44.3004 97.0001 44.0004 96.9001C42.0004 95.8001 40.1004 94.6001 38.2004 93.3001C37.5004 92.8001 36.8004 92.3001 36.2004 91.7001C35.5004 91.0001 35.0004 90.2001 34.7004 89.3001C34.6004 88.9001 34.5004 88.4001 34.5004 87.9001C34.5004 86.5001 35.0004 85.2001 35.9004 84.1001C36.9004 82.9001 38.2004 81.9001 39.6004 81.2001C44.9004 78.3001 50.9004 76.8001 57.0004 76.8001C57.5004 76.8001 58.0004 76.8001 58.5004 76.8001C49.6004 68.9001 42.0004 66.9001 38.5004 66.2001C33.5004 65.2001 30.3004 64.6001 27.4004 64.6001ZM50.4004 6.9001C47.0004 8.3001 43.8004 10.2001 40.9004 12.4001C30.6004 20.1001 18.7004 33.3001 12.2004 44.3001C11.1004 46.1001 10.2004 47.9001 9.40039 49.9001C8.70039 51.5001 8.30038 53.3001 8.20039 55.0001C8.20039 56.1001 8.40039 57.1001 8.90039 58.1001C9.10039 58.4001 9.20039 58.7001 9.40039 58.9001C9.50039 58.9001 9.70039 58.8001 9.80039 58.8001C10.0004 58.8001 10.1004 58.8001 10.3004 58.9001C10.4004 58.9001 10.5004 59.0001 10.6004 59.1001C16.6004 55.2001 22.3004 50.8001 27.5004 46.0001C26.8004 44.3001 26.0004 42.5001 25.3004 40.8001C25.1004 40.3001 24.9004 39.7001 24.9004 39.2001C24.9004 39.1001 24.9004 39.0001 24.9004 38.9001C25.0004 38.3001 25.2004 37.8001 25.5004 37.3001C27.6004 33.7001 30.4004 30.5001 33.6004 27.9001C33.9004 27.6001 34.3004 27.4001 34.7004 27.1001C35.2004 26.8001 35.7004 26.6001 36.2004 26.5001C36.5004 26.4001 36.8004 26.4001 37.1004 26.4001C37.7004 26.4001 38.4004 26.5001 39.0004 26.7001L43.6004 27.8001C43.7004 27.8001 43.8004 27.9001 43.9004 27.9001C48.9004 21.3001 53.2004 14.2001 56.8004 6.7001C56.8004 6.7001 56.7004 6.7001 56.7004 6.6001C55.9004 6.1001 55.1004 5.9001 54.2004 5.9001C53.1004 6.0001 51.7004 6.3001 50.4004 6.9001ZM32.6004 32.9001C32.0004 33.5001 31.4004 34.2001 30.9004 34.8001C31.0004 34.8001 31.0004 34.9001 31.1004 34.9001C31.3004 35.0001 31.5004 35.0001 31.7004 35.1001H31.8004C32.0004 35.1001 32.1004 34.9001 32.3004 34.8001C32.5004 34.6001 32.6004 34.3001 32.6004 34.0001C32.6004 33.9001 32.6004 33.7001 32.6004 33.6001C32.7004 33.3001 32.7004 33.1001 32.6004 32.9001ZM34.5004 36.5001C34.0004 37.2001 33.2004 37.6001 32.4004 37.8001C32.2004 37.8001 31.9004 37.9001 31.7004 37.9001C31.1004 37.9001 30.5004 37.8001 30.0004 37.5001C29.7004 37.4001 29.5004 37.3001 29.2004 37.1001C28.9004 37.6001 28.5004 38.1001 28.2004 38.7001C28.1004 38.8001 28.1004 38.9001 28.0004 39.0001V39.1001V39.2001C28.0004 39.3001 28.1004 39.5001 28.2004 39.6001L30.0004 43.9001C34.4004 39.7001 38.5004 35.2001 42.3004 30.4001L38.6004 29.6001C38.2004 29.5001 37.8004 29.4001 37.3004 29.4001C37.2004 29.4001 37.1004 29.4001 37.0004 29.4001C36.8004 29.4001 36.6004 29.5001 36.4004 29.6001C36.1004 29.8001 35.9004 29.9001 35.6004 30.1001C35.4004 30.3001 35.1004 30.5001 34.9004 30.7001C35.2004 31.6001 35.4004 32.6001 35.5004 33.6001C35.5004 33.9001 35.5004 34.2001 35.4004 34.5001C35.3004 35.2001 35.0004 35.9001 34.5004 36.5001ZM59.9004 11.1001C59.6004 10.5001 59.4004 9.9001 59.1004 9.3001C48.5004 30.5001 32.4004 48.5001 12.5004 61.4001C13.2004 61.8001 13.8004 62.1001 14.5004 62.3001C15.6004 62.7001 16.7004 62.9001 17.8004 62.9001C19.6004 62.8001 21.5004 62.5001 23.3004 62.1001C24.0004 62.0001 24.6004 61.9001 25.3004 61.8001C25.4004 61.7001 25.6004 61.6001 25.7004 61.5001C40.4004 54.0001 52.2004 41.9001 59.5004 27.1001C59.6004 27.0001 59.6004 26.9001 59.7004 26.8001C59.8004 26.3001 59.8004 25.9001 59.9004 25.4001C60.1004 24.6001 60.4004 23.6001 60.6004 22.3001C60.9004 20.8001 61.0004 19.3001 61.1004 17.8001C61.2004 15.4001 60.8004 13.2001 59.9004 11.1001ZM61.8004 75.8001C62.9004 75.2001 64.0004 74.7001 65.0004 74.0001C65.9004 73.4001 66.7004 72.9001 67.4004 72.4001C68.7004 71.4001 70.0004 70.3001 71.1004 69.2001C74.3004 65.9001 76.5004 61.9001 77.5004 57.4001C70.7004 50.8001 66.4004 45.3001 63.6004 40.6001C62.0004 38.0001 60.8004 35.1001 60.1004 32.1001C53.2004 44.4001 43.1004 54.7001 30.8004 61.9001C33.1004 62.2001 35.7004 62.7001 39.1004 63.3001C43.2004 64.1001 51.9004 66.5001 61.8004 75.8001ZM91.6004 73.5001C91.4004 71.1001 90.6004 68.8001 89.3004 66.8001C87.6004 64.2001 85.4004 61.9001 82.8004 60.1001C81.9004 59.5001 81.1004 58.9001 80.1004 58.4001C78.9004 63.2001 76.5004 67.6001 73.1004 71.1001C70.1004 74.1001 66.7004 76.6001 62.9004 78.4001C63.6004 79.5001 64.4004 80.5001 65.2004 81.4001C67.2004 83.6001 69.7004 85.3001 72.5004 86.2001C74.5004 86.9001 76.6004 87.2001 78.7004 87.2001C80.7004 87.2001 82.6004 86.9001 84.5004 86.2001C86.3004 85.5001 87.9004 84.4001 89.1004 82.9001C90.1004 81.7001 90.8004 80.3001 91.2004 78.8001C91.5004 77.6001 91.7004 76.3001 91.7004 75.1001C91.7004 74.4001 91.7004 73.8001 91.6004 73.5001ZM41.2004 83.7001C40.1004 84.2001 39.2004 84.9001 38.4004 85.8001C37.9004 86.4001 37.7004 87.1001 37.6004 87.8001C37.6004 88.0001 37.6004 88.2001 37.7004 88.4001C37.9004 88.9001 38.1004 89.3001 38.5004 89.6001C39.0004 90.1001 39.5004 90.5001 40.0004 90.8001C41.8004 92.0001 43.7004 93.2001 45.6004 94.3001C45.8004 94.4001 45.9004 94.5001 46.1004 94.6001C46.2004 94.6001 46.2004 94.7001 46.3004 94.7001C46.4004 94.7001 46.5004 94.6001 46.6004 94.6001C46.8004 94.4001 47.1004 94.2001 47.3004 94.0001C52.0004 89.6001 57.6004 86.2001 63.7004 84.0001C63.5004 83.8001 63.3004 83.6001 63.2004 83.4001C62.2004 82.3001 61.2004 81.1001 60.4004 79.7001C59.3004 79.6001 58.3004 79.5001 57.2004 79.5001C51.6004 79.6001 46.1004 81.0001 41.2004 83.7001Z" fill="black"/>
</g>
<defs>
<clipPath id="clip0_430_677">
<rect width="100" height="100" fill="white" transform="matrix(-1 0 0 1 100 0)"/>
</clipPath>
</defs>
</svg>
