<svg width="9" height="13" viewBox="0 0 9 13" fill="none" xmlns="http://www.w3.org/2000/svg">
<path d="M8.38783 5.38132H7.6497V3.60824C7.6497 1.83782 6.22325 0.397461 4.46829 0.397461C2.71331 0.397461 1.28689 1.83876 1.28689 3.61034V5.38132H0.556938C0.304013 5.38132 0.0947266 5.58391 0.0947266 5.83897V11.1961C0.0947266 11.8327 0.612568 12.3502 1.24386 12.3502H7.70091C8.3322 12.3502 8.84186 11.8327 8.84186 11.1961V5.83897C8.84186 5.58391 8.64075 5.38132 8.38783 5.38132ZM2.2018 3.61034C2.2018 2.34806 3.21835 1.32111 4.46829 1.32111C5.71823 1.32111 6.73478 2.34711 6.73478 3.60824V5.38132H2.2018V3.61034ZM7.92694 11.1961C7.92694 11.3235 7.82717 11.4275 7.70091 11.4275H1.24386C1.1176 11.4275 1.00964 11.3234 1.00964 11.1961V6.30398H7.92694V11.1961Z" fill="#8C8C8C"/>
<path d="M4.4682 10.2498C4.72112 10.2498 4.92566 10.043 4.92566 9.78795V8.12539C4.92566 7.87033 4.72112 7.66357 4.4682 7.66357C4.21528 7.66357 4.01074 7.87033 4.01074 8.12539V9.78795C4.01074 10.043 4.21527 10.2498 4.4682 10.2498Z" fill="#8C8C8C"/>
</svg>
