<svg width="24" height="24" viewBox="0 0 24 24" fill="none" xmlns="http://www.w3.org/2000/svg">
<path d="M11.9779 1.59101C2.72054 1.58801 -1.91611 12.7787 4.62793 19.3247C6.08072 20.7779 7.93181 21.7676 9.9471 22.1687C11.9624 22.5698 14.0514 22.3642 15.9498 21.578C17.8483 20.7918 19.471 19.4602 20.6126 17.7517C21.7543 16.0433 22.3636 14.0346 22.3637 11.9798C22.3637 6.24364 17.715 1.593 11.9779 1.59101ZM6.09492 6.77291C6.59524 4.17846 9.9826 3.48342 11.4636 5.67142C12.9445 7.85843 11.0422 10.7465 8.4477 10.2472C8.06503 10.1736 7.7006 10.0255 7.37522 9.81104C7.04985 9.59663 6.76991 9.3202 6.55142 8.99755C6.33292 8.67491 6.18014 8.31237 6.10181 7.93066C6.02349 7.54894 6.02115 7.15553 6.09492 6.77291ZM10.411 15.7486C9.9077 18.3421 6.51934 19.0321 5.04137 16.8431C3.56339 14.6541 5.46778 11.7701 8.06223 12.2704C8.44495 12.3443 8.80934 12.493 9.13456 12.7079C9.45979 12.9227 9.73947 13.1996 9.95761 13.5226C10.1757 13.8457 10.3281 14.2086 10.4059 14.5905C10.4837 14.9725 10.4854 15.366 10.411 15.7486ZM11.6693 13.3469C10.5189 13.1242 10.2093 11.6223 11.179 10.9632C12.1476 10.3041 13.4319 11.1429 13.2162 12.2954C13.1842 12.4661 13.1188 12.6289 13.0236 12.7743C12.9285 12.9197 12.8056 13.0449 12.6619 13.1426C12.5183 13.2403 12.3567 13.3087 12.1865 13.3438C12.0163 13.3788 11.8399 13.3799 11.6693 13.3469ZM17.8588 17.1797C17.3585 19.7741 13.9711 20.4682 12.4902 18.2812C11.0082 16.0932 12.9106 13.2061 15.506 13.7044C15.8888 13.7779 16.2533 13.9262 16.5788 14.1406C16.9042 14.3551 17.1842 14.6316 17.4027 14.9544C17.6212 15.2771 17.774 15.6398 17.8523 16.0216C17.9305 16.4035 17.9327 16.797 17.8588 17.1797ZM15.8945 11.6852C13.3001 11.1849 12.606 7.79452 14.794 6.31254C16.981 4.83157 19.8681 6.73397 19.3698 9.32841C19.2967 9.71155 19.1488 10.0765 18.9345 10.4024C18.7202 10.7283 18.4438 11.0087 18.121 11.2277C17.7982 11.4466 17.4354 11.5997 17.0533 11.6782C16.6713 11.7567 16.2775 11.7591 15.8945 11.6852ZM13.5647 23.2314L15.8256 23.8406C16.7763 24.0928 17.7882 23.9572 18.639 23.4636C19.4897 22.97 20.1096 22.1587 20.3624 21.2082L21.0015 18.8094C19.2021 21.2063 16.529 22.7956 13.5637 23.2314H13.5647ZM21.1973 3.59327L18.8375 2.96513C20.03 3.88242 21.0285 5.02744 21.7749 6.33374C22.5213 7.64004 23.0008 9.08159 23.1855 10.5747L23.8346 8.11907C24.083 7.1691 23.9447 6.15941 23.45 5.31125C22.9552 4.46309 22.1444 3.84566 21.1953 3.59426L21.1973 3.59327ZM0.664357 13.7893L0.124096 15.8265C-0.128161 16.7772 0.00742959 17.7892 0.501058 18.6399C0.994687 19.4906 1.80595 20.1105 2.75649 20.3633L4.86061 20.9245C2.61423 19.1584 1.11663 16.6108 0.664357 13.7893ZM10.3361 0.700226L8.13213 0.125013C7.66107 -0.000471304 7.16989 -0.0318847 6.68667 0.0325685C6.20346 0.0970218 5.73769 0.256078 5.31598 0.500644C4.89427 0.745211 4.5249 1.07049 4.22897 1.45789C3.93305 1.8453 3.71638 2.28722 3.59135 2.75841L3.0411 4.83756C4.85634 2.57829 7.46541 1.09821 10.3361 0.700226Z" fill="white"/>
</svg>
