<svg width="22" height="22" viewBox="0 0 22 22" fill="none" xmlns="http://www.w3.org/2000/svg">
<path d="M4.43056 9.52722C6.19056 12.9861 9.02 15.8156 12.485 17.5756L15.1739 14.8806C15.51 14.5444 15.9928 14.4467 16.4144 14.5811C17.7833 15.0333 19.2561 15.2778 20.7778 15.2778C21.4561 15.2778 22 15.8217 22 16.5V20.7778C22 21.4561 21.4561 22 20.7778 22C9.30111 22 0 12.6989 0 1.22222C0 0.543889 0.55 0 1.22222 0H5.5C6.17833 0 6.72222 0.543889 6.72222 1.22222C6.72222 2.74389 6.96667 4.21667 7.41889 5.58556C7.55333 6.00722 7.45556 6.49 7.11944 6.82611L4.43056 9.52722Z" fill="#8C8C8C"/>
</svg>
