<svg width="14" height="14" viewBox="0 0 14 14" fill="none" xmlns="http://www.w3.org/2000/svg">
<path d="M13.9781 10.5822L13.3424 13.3384C13.2531 13.7281 12.9106 14.0007 12.5095 14.0007C5.61094 14.0002 0 8.38922 0 1.4904C0 1.08954 0.27259 0.746645 0.662266 0.657778L3.41852 0.022036C3.81992 -0.0709875 4.23008 0.137372 4.39687 0.517505L5.66891 3.4843C5.8176 3.83375 5.7173 4.2409 5.42336 4.48098L3.95117 5.66305C4.88031 7.55579 6.41922 9.09469 8.3125 10.0244L9.51781 8.55329C9.75537 8.25852 10.1656 8.15653 10.515 8.30788L13.4818 9.57963C13.8387 9.76735 14.0711 10.183 13.9781 10.5822Z" fill="#0DC167"/>
</svg>
