<svg width="18" height="16" viewBox="0 0 18 16" fill="none" xmlns="http://www.w3.org/2000/svg">
<path d="M17.4367 13.7241L13.8404 10.3394C14.5835 9.28543 15.0184 8.02342 15.0184 6.66674C15.0184 2.9907 11.8408 0 7.93497 0C4.02918 0 0.851562 2.9907 0.851562 6.66674C0.851562 10.3428 4.02918 13.3335 7.93497 13.3335C9.37644 13.3335 10.7173 12.9241 11.8372 12.2248L15.4335 15.6095C15.986 16.1302 16.8841 16.1302 17.4367 15.6095C17.9899 15.0888 17.9899 14.2448 17.4367 13.7241ZM2.97658 6.66674C2.97658 4.09338 5.20077 2.00002 7.93497 2.00002C10.6692 2.00002 12.8934 4.09338 12.8934 6.66674C12.8934 9.2401 10.6692 11.3335 7.93497 11.3335C5.20077 11.3335 2.97658 9.2401 2.97658 6.66674Z" fill="#01122E"/>
</svg>
