<svg width="22" height="20" viewBox="0 0 22 20" fill="none" xmlns="http://www.w3.org/2000/svg">
<path d="M17.9643 1.66667H17.0879V0.833333C17.0879 0.61232 16.9955 0.400358 16.8312 0.244078C16.6668 0.0877974 16.4439 0 16.2115 0C15.9791 0 15.7561 0.0877974 15.5918 0.244078C15.4274 0.400358 15.3351 0.61232 15.3351 0.833333V1.66667H6.57123V0.833333C6.57123 0.61232 6.4789 0.400358 6.31455 0.244078C6.15019 0.0877974 5.92728 0 5.69485 0C5.46241 0 5.2395 0.0877974 5.07515 0.244078C4.91079 0.400358 4.81846 0.61232 4.81846 0.833333V1.66667H3.94207C3.01234 1.66667 2.12069 2.01786 1.46328 2.64298C0.805857 3.2681 0.436523 4.11594 0.436523 5L0.436523 16.6667C0.436523 17.5507 0.805857 18.3986 1.46328 19.0237C2.12069 19.6488 3.01234 20 3.94207 20H17.9643C18.894 20 19.7856 19.6488 20.4431 19.0237C21.1005 18.3986 21.4698 17.5507 21.4698 16.6667V5C21.4698 4.11594 21.1005 3.2681 20.4431 2.64298C19.7856 2.01786 18.894 1.66667 17.9643 1.66667ZM19.717 16.6667C19.717 17.1087 19.5324 17.5326 19.2037 17.8452C18.875 18.1577 18.4291 18.3333 17.9643 18.3333H3.94207C3.47721 18.3333 3.03138 18.1577 2.70267 17.8452C2.37396 17.5326 2.1893 17.1087 2.1893 16.6667V5C2.1893 4.55797 2.37396 4.13405 2.70267 3.82149C3.03138 3.50893 3.47721 3.33333 3.94207 3.33333H4.81846V4.16667C4.81846 4.38768 4.91079 4.59964 5.07515 4.75592C5.2395 4.9122 5.46241 5 5.69485 5C5.92728 5 6.15019 4.9122 6.31455 4.75592C6.4789 4.59964 6.57123 4.38768 6.57123 4.16667V3.33333H15.3351V4.16667C15.3351 4.38768 15.4274 4.59964 15.5918 4.75592C15.7561 4.9122 15.9791 5 16.2115 5C16.4439 5 16.6668 4.9122 16.8312 4.75592C16.9955 4.59964 17.0879 4.38768 17.0879 4.16667V3.33333H17.9643C18.4291 3.33333 18.875 3.50893 19.2037 3.82149C19.5324 4.13405 19.717 4.55797 19.717 5V16.6667Z" fill="#252525" fill-opacity="0.4"/>
</svg>
